<svg width="49" height="48" viewBox="0 0 49 48" fill="none" xmlns="http://www.w3.org/2000/svg">
<path d="M29.5625 9.1875C30.3125 9.46875 30.6875 10.4062 30.3125 11.1562L27.2188 18.4688C27.7812 19.125 28.25 20.0625 28.25 21C28.25 23.1562 26.5625 24.75 24.5 24.75C22.3438 24.75 20.75 23.1562 20.75 21C20.75 18.9375 22.3438 17.3438 24.4062 17.25L27.5938 9.9375C27.875 9.1875 28.8125 8.8125 29.5625 9.1875ZM42.5 6C45.7812 6 48.5 8.71875 48.5 12V42C48.5 45.375 45.7812 48 42.5 48H6.5C3.125 48 0.5 45.375 0.5 42V12C0.5 8.71875 3.125 6 6.5 6H11.75C14.75 2.34375 19.3438 0 24.5 0C29.5625 0 34.1562 2.34375 37.1562 6H42.5ZM24.5 28.5C31.0625 28.5 36.5 23.1562 36.5 16.5C36.5 9.9375 31.0625 4.5 24.5 4.5C17.8438 4.5 12.5 9.9375 12.5 16.5C12.5 23.1562 17.8438 28.5 24.5 28.5Z" fill="#EBBA34"/>
</svg>
