<svg width="36" height="48" viewBox="0 0 36 48" fill="none" xmlns="http://www.w3.org/2000/svg">
<path d="M20.8125 4.5H27C31.9688 4.5 36 8.53125 36 13.5C36 18.4688 31.9688 22.5 27 22.5H23.25V15H27C27.75 15 28.5 14.3438 28.5 13.5C28.5 12.75 27.75 12 27 12H20.625L20.1562 25.5H24C28.9688 25.5 33 29.5312 33 34.5C33 39.4688 28.9688 43.5 24 43.5H22.5V36H24C24.75 36 25.5 35.3438 25.5 34.5C25.5 33.75 24.75 33 24 33H19.875L19.5 46.5C19.5 47.3438 18.75 48 17.9062 48C17.1562 48 16.4062 47.3438 16.4062 46.5L16.3125 43.5H12.6562C10.5938 43.5 8.90625 41.9062 8.90625 39.75C8.90625 37.6875 10.5938 36 12.6562 36H16.0312L15.9375 33H14.1562C9.1875 33 5.15625 28.9688 5.15625 24C5.15625 19.5938 8.4375 15.8438 12.6562 15.1875V24C12.6562 24.8438 13.4062 25.5 14.1562 25.5H15.75L15.375 12H11.4375C10.5938 13.7812 8.8125 15 6.75 15H5.25C2.34375 15 0 12.6562 0 9.75C0 6.9375 2.34375 4.5 5.25 4.5H15.0938L15 3V2.90625C15.0938 1.3125 16.4062 0 18 0C19.5 0 20.8125 1.3125 20.9062 2.90625V3L20.8125 4.5ZM7.40625 9C7.40625 8.25 6.75 7.5 5.90625 7.5C5.15625 7.5 4.40625 8.25 4.40625 9C4.40625 9.84375 5.15625 10.5 5.90625 10.5C6.75 10.5 7.40625 9.84375 7.40625 9Z" fill="#EBBA34"/>
</svg>
