<svg width="287" height="80" viewBox="0 0 287 80" fill="none" xmlns="http://www.w3.org/2000/svg">
<g filter="url(#filter0_d_3_38)">
<path d="M53.7823 58L66.6943 40.768L54.2623 24.16H61.4143L70.1983 36.304L78.9823 24.16H86.1823L73.7503 40.768L86.6143 58H79.4143L70.1983 45.328L61.0303 58H53.7823ZM90.0163 58V24.16H96.1603V38.272H113.584V24.16H119.728V58H113.584V43.408H96.1603V58H90.0163ZM138.133 58.48C135.477 58.48 133.189 57.984 131.269 56.992C129.349 56 127.861 54.592 126.805 52.768C125.781 50.944 125.269 48.784 125.269 46.288C125.269 43.856 125.765 41.728 126.757 39.904C127.781 38.08 129.173 36.656 130.933 35.632C132.725 34.576 134.757 34.048 137.029 34.048C140.357 34.048 142.981 35.104 144.901 37.216C146.853 39.328 147.829 42.208 147.829 45.856V47.632H131.029C131.477 51.824 133.877 53.92 138.229 53.92C139.541 53.92 140.853 53.728 142.165 53.344C143.477 52.928 144.677 52.288 145.765 51.424L147.445 55.456C146.325 56.384 144.917 57.12 143.221 57.664C141.525 58.208 139.829 58.48 138.133 58.48ZM137.269 38.128C135.509 38.128 134.085 38.672 132.997 39.76C131.909 40.848 131.253 42.32 131.029 44.176H142.837C142.709 42.224 142.165 40.736 141.205 39.712C140.277 38.656 138.965 38.128 137.269 38.128ZM160.309 58.48C158.613 58.48 157.093 58.16 155.749 57.52C154.437 56.848 153.397 55.952 152.629 54.832C151.893 53.712 151.525 52.448 151.525 51.04C151.525 49.312 151.973 47.952 152.869 46.96C153.765 45.936 155.221 45.2 157.237 44.752C159.253 44.304 161.957 44.08 165.349 44.08H167.029V43.072C167.029 41.472 166.677 40.32 165.973 39.616C165.269 38.912 164.085 38.56 162.421 38.56C161.109 38.56 159.765 38.768 158.389 39.184C157.013 39.568 155.621 40.176 154.213 41.008L152.485 36.928C153.317 36.352 154.293 35.856 155.413 35.44C156.565 34.992 157.765 34.656 159.013 34.432C160.293 34.176 161.493 34.048 162.613 34.048C166.037 34.048 168.581 34.848 170.245 36.448C171.909 38.016 172.741 40.464 172.741 43.792V58H167.125V54.256C166.581 55.568 165.717 56.608 164.533 57.376C163.349 58.112 161.941 58.48 160.309 58.48ZM161.557 54.352C163.125 54.352 164.421 53.808 165.445 52.72C166.501 51.632 167.029 50.256 167.029 48.592V47.536H165.397C162.389 47.536 160.293 47.776 159.109 48.256C157.957 48.704 157.381 49.536 157.381 50.752C157.381 51.808 157.749 52.672 158.485 53.344C159.221 54.016 160.245 54.352 161.557 54.352ZM186.991 58.48C184.207 58.48 182.143 57.728 180.799 56.224C179.487 54.688 178.831 52.448 178.831 49.504V24.16H184.831V49.216C184.831 52.096 186.047 53.536 188.479 53.536C188.831 53.536 189.183 53.52 189.535 53.488C189.887 53.456 190.223 53.392 190.543 53.296L190.447 58.048C189.295 58.336 188.143 58.48 186.991 58.48ZM204.302 58.48C198.094 58.48 194.99 55.408 194.99 49.264V39.04H190.478V34.528H194.99V27.52H200.99V34.528H208.094V39.04H200.99V48.928C200.99 50.464 201.326 51.616 201.998 52.384C202.67 53.152 203.758 53.536 205.262 53.536C205.71 53.536 206.174 53.488 206.654 53.392C207.134 53.264 207.63 53.136 208.142 53.008L209.054 57.424C208.478 57.744 207.742 58 206.846 58.192C205.982 58.384 205.134 58.48 204.302 58.48ZM211.972 58V24.16H217.972V37.936C218.772 36.656 219.844 35.696 221.188 35.056C222.532 34.384 224.02 34.048 225.652 34.048C231.188 34.048 233.956 37.264 233.956 43.696V58H227.956V43.984C227.956 42.16 227.604 40.832 226.9 40C226.228 39.168 225.172 38.752 223.732 38.752C221.972 38.752 220.564 39.312 219.508 40.432C218.484 41.52 217.972 42.976 217.972 44.8V58H211.972Z" fill="#EBBA34"/>
</g>
<defs>
<filter id="filter0_d_3_38" x="0.78231" y="-30.84" width="286.173" height="140.32" filterUnits="userSpaceOnUse" color-interpolation-filters="sRGB">
<feFlood flood-opacity="0" result="BackgroundImageFix"/>
<feColorMatrix in="SourceAlpha" type="matrix" values="0 0 0 0 0 0 0 0 0 0 0 0 0 0 0 0 0 0 127 0" result="hardAlpha"/>
<feOffset dy="-2"/>
<feGaussianBlur stdDeviation="26.5"/>
<feComposite in2="hardAlpha" operator="out"/>
<feColorMatrix type="matrix" values="0 0 0 0 0.921569 0 0 0 0 0.729412 0 0 0 0 0.203922 0 0 0 1 0"/>
<feBlend mode="lighten" in2="BackgroundImageFix" result="effect1_dropShadow_3_38"/>
<feBlend mode="normal" in="SourceGraphic" in2="effect1_dropShadow_3_38" result="shape"/>
</filter>
</defs>
</svg>
