<svg width="14" height="13" viewBox="0 0 14 13" fill="none" xmlns="http://www.w3.org/2000/svg">
<path d="M13.125 0.625C13.5898 0.625 14 1.03516 14 1.5V11.125C14 12.1094 13.207 12.875 12.25 12.875H1.75C0.765625 12.875 0 12.1094 0 11.125V3.25C0 2.78516 0.382812 2.375 0.875 2.375H1.75V10.6875C1.75 10.9336 1.94141 11.125 2.1875 11.125C2.40625 11.125 2.625 10.9336 2.625 10.6875V1.5C2.625 1.03516 3.00781 0.625 3.5 0.625H13.125ZM7.4375 11.125C7.65625 11.125 7.875 10.9336 7.875 10.6875C7.875 10.4688 7.65625 10.25 7.4375 10.25H4.8125C4.56641 10.25 4.375 10.4688 4.375 10.6875C4.375 10.9336 4.56641 11.125 4.8125 11.125H7.4375ZM7.4375 8.5C7.65625 8.5 7.875 8.30859 7.875 8.0625C7.875 7.84375 7.65625 7.625 7.4375 7.625H4.8125C4.56641 7.625 4.375 7.84375 4.375 8.0625C4.375 8.30859 4.56641 8.5 4.8125 8.5H7.4375ZM11.8125 11.125C12.0312 11.125 12.25 10.9336 12.25 10.6875C12.25 10.4688 12.0312 10.25 11.8125 10.25H9.1875C8.94141 10.25 8.75 10.4688 8.75 10.6875C8.75 10.9336 8.94141 11.125 9.1875 11.125H11.8125ZM11.8125 8.5C12.0312 8.5 12.25 8.30859 12.25 8.0625C12.25 7.84375 12.0312 7.625 11.8125 7.625H9.1875C8.94141 7.625 8.75 7.84375 8.75 8.0625C8.75 8.30859 8.94141 8.5 9.1875 8.5H11.8125ZM12.25 5.4375V2.8125C12.25 2.59375 12.0312 2.375 11.8125 2.375H4.8125C4.56641 2.375 4.375 2.59375 4.375 2.8125V5.4375C4.375 5.68359 4.56641 5.875 4.8125 5.875H11.8125C12.0312 5.875 12.25 5.68359 12.25 5.4375Z" fill="#EBBA34"/>
</svg>
