<svg width="50" height="38" viewBox="0 0 50 38" fill="none" xmlns="http://www.w3.org/2000/svg">
<g filter="url(#filter0_d_20_48)">
<path d="M13 12C17.9688 12 22 16.0312 22 21C22 26.0625 17.9688 30 13 30C7.9375 30 4 26.0625 4 21V12C4 5.4375 9.34375 0 16 0C17.5938 0 19 1.40625 19 3C19 4.6875 17.5938 6 16 6C12.625 6 10 8.71875 10 12V12.5625C10.9375 12.2812 11.875 12 13 12ZM37 12C41.9688 12 46 16.0312 46 21C46 26.0625 41.9688 30 37 30C31.9375 30 28 26.0625 28 21V12C28 5.4375 33.3438 0 40 0C41.5938 0 43 1.40625 43 3C43 4.6875 41.5938 6 40 6C36.625 6 34 8.71875 34 12V12.5625C34.9375 12.2812 35.875 12 37 12Z" fill="black"/>
</g>
<defs>
<filter id="filter0_d_20_48" x="0" y="0" width="50" height="38" filterUnits="userSpaceOnUse" color-interpolation-filters="sRGB">
<feFlood flood-opacity="0" result="BackgroundImageFix"/>
<feColorMatrix in="SourceAlpha" type="matrix" values="0 0 0 0 0 0 0 0 0 0 0 0 0 0 0 0 0 0 127 0" result="hardAlpha"/>
<feOffset dy="4"/>
<feGaussianBlur stdDeviation="2"/>
<feComposite in2="hardAlpha" operator="out"/>
<feColorMatrix type="matrix" values="0 0 0 0 0 0 0 0 0 0 0 0 0 0 0 0 0 0 0.25 0"/>
<feBlend mode="normal" in2="BackgroundImageFix" result="effect1_dropShadow_20_48"/>
<feBlend mode="normal" in="SourceGraphic" in2="effect1_dropShadow_20_48" result="shape"/>
</filter>
</defs>
</svg>
