<svg width="55" height="49" viewBox="0 0 55 49" fill="none" xmlns="http://www.w3.org/2000/svg">
<path d="M2.99988 4.5C2.99988 2.0625 4.96863 0 7.49988 0C9.93738 0 11.9999 2.0625 11.9999 4.5C11.9999 7.03125 9.93738 9 7.49988 9C4.96863 9 2.99988 7.03125 2.99988 4.5ZM11.0624 12C12.1874 12 13.4061 12.2812 14.5311 12.75L27.0936 18C28.3124 16.125 29.9999 14.7188 32.0624 13.7812L33.0936 13.3125C35.0624 12.4688 37.1249 12 39.2811 12C43.4999 12 47.2499 14.5312 48.8436 18.375L50.2499 21.8438L52.3124 22.875C53.8124 23.625 54.3749 25.4062 53.6249 26.9062C52.8749 28.4062 51.0936 28.9688 49.5936 28.2188L47.1561 27C46.1249 26.5312 45.3749 25.6875 44.9999 24.6562L44.0624 22.5L42.2811 28.6875L46.8749 33.75C47.4374 34.3125 47.8124 34.9688 47.9999 35.7188L50.1561 44.3438C50.5311 45.9375 49.4999 47.5312 47.9061 47.9062C46.3124 48.375 44.7186 47.3438 44.2499 45.75L42.1874 37.5L35.6249 30.2812C34.2186 28.7812 33.6561 26.625 34.2186 24.6562L35.8124 18.75C35.7186 18.75 35.6249 18.8438 35.5311 18.8438L34.4999 19.3125C33.0936 19.9688 31.9686 21.0938 31.4061 22.5938L31.2186 22.875C30.7499 24.0938 29.6249 24.8438 28.4061 24.75C28.0311 24.75 27.6561 24.75 27.2811 24.5625L16.2186 19.9688L21.6561 44.4375C22.0311 46.0312 20.9999 47.625 19.3124 48C17.7186 48.375 16.1249 47.3438 15.7499 45.6562L12.9374 33H11.5311L13.4061 44.5312C13.6874 46.2188 12.5624 47.7188 10.9686 48C9.28113 48.2812 7.78113 47.1562 7.49988 45.5625L5.24988 31.9688C4.68738 32.625 3.84363 33 2.99988 33C1.31238 33 -0.00012207 31.6875 -0.00012207 30V18C-0.00012207 14.7188 2.62488 12 5.99988 12H11.0624ZM38.9999 4.5C38.9999 2.0625 40.9686 0 43.4999 0C45.9374 0 47.9999 2.0625 47.9999 4.5C47.9999 7.03125 45.9374 9 43.4999 9C40.9686 9 38.9999 7.03125 38.9999 4.5ZM33.3749 32.3438L37.2186 36.4688L35.8124 39.8438C35.6249 40.4062 35.2499 40.9688 34.8749 41.3438L29.0624 47.1562C27.9374 48.375 25.9686 48.375 24.8436 47.1562C23.6249 46.0312 23.6249 44.0625 24.8436 42.9375L30.3749 37.3125L32.7186 31.5C32.9061 31.7812 33.1874 32.0625 33.3749 32.3438Z" fill="#EBBA34"/>
</svg>
