<svg width="39" height="37" viewBox="0 0 39 37" fill="none" xmlns="http://www.w3.org/2000/svg">
<path d="M26.0391 11.1172L36.0938 12.5938C36.9375 12.7344 37.6406 13.2969 37.9219 14.1406C38.2031 14.9141 37.9922 15.8281 37.3594 16.3906L30.0469 23.6328L31.8047 33.8984C31.9453 34.7422 31.5938 35.5859 30.8906 36.0781C30.1875 36.6406 29.2734 36.6406 28.5 36.2891L19.5 31.4375L10.4297 36.2891C9.72656 36.6406 8.74219 36.6406 8.10938 36.0781C7.40625 35.5859 7.05469 34.7422 7.19531 33.8984L8.88281 23.6328L1.57031 16.3906C0.9375 15.8281 0.726562 14.9141 1.00781 14.1406C1.28906 13.2969 1.99219 12.7344 2.83594 12.5938L12.9609 11.1172L17.4609 1.76562C17.8125 0.992188 18.5859 0.5 19.5 0.5C20.3438 0.5 21.1172 0.992188 21.4688 1.76562L26.0391 11.1172Z" fill="#EBAB34"/>
</svg>
