<svg width="14" height="13" viewBox="0 0 14 13" fill="none" xmlns="http://www.w3.org/2000/svg">
<path d="M3.5 12C3.5 12.4922 3.08984 12.875 2.625 12.8203H0.875C0.382812 12.8203 0 12.4375 0 11.9727V5.875C0 5.41016 0.382812 5 0.875 5H2.625C3.08984 5 3.5 5.38281 3.5 5.875V12ZM14 5.90234C14 6.58594 13.4531 7.16016 12.7695 7.1875C12.9883 7.43359 13.125 7.73438 13.125 8.08984C13.125 8.71875 12.6602 9.23828 12.0312 9.375C12.168 9.56641 12.25 9.78516 12.25 10.0312C12.25 10.6328 11.8672 11.125 11.3203 11.2891C11.3477 11.3711 11.375 11.4805 11.375 11.5898C11.375 12.3008 10.7734 12.875 10.0625 12.875H8.44922C7.49219 12.875 6.58984 12.5742 5.82422 12L4.89453 11.3164C4.56641 11.0703 4.375 10.6875 4.375 10.25V5.875C4.375 5.90234 4.375 5.875 4.375 5.875C4.375 5.49219 4.53906 5.13672 4.86719 4.86328L5.30469 4.50781C7.54688 2.73047 6.53516 0.625 8.25781 0.625C9.10547 0.625 9.625 1.30859 9.625 1.96484C9.625 2.375 9.29688 3.55078 8.66797 4.58984H12.6875C13.3984 4.58984 14 5.16406 14 5.90234Z" fill="#EBBA34"/>
</svg>
